<svg xmlns="http://www.w3.org/2000/svg" width="900" height="420" viewBox="0 0 900 420">
<style>text { font-family: Arial, sans-serif; fill: #222; } .title { font-size: 22px; font-weight: 700; } .label { font-size: 13px; } .small { font-size: 12px; }</style>
<text x="450.0" y="34" text-anchor="middle" class="title">Benchmark Metrics by Model Version</text>
<line x1="80" y1="320" x2="840" y2="320" stroke="#333" stroke-width="2"/>
<line x1="80" y1="320.0" x2="840" y2="320.0" stroke="#ddd" stroke-width="1"/>
<text x="68" y="324.0" text-anchor="end" class="small">0.0</text>
<line x1="80" y1="268.0" x2="840" y2="268.0" stroke="#ddd" stroke-width="1"/>
<text x="68" y="272.0" text-anchor="end" class="small">0.2</text>
<line x1="80" y1="216.0" x2="840" y2="216.0" stroke="#ddd" stroke-width="1"/>
<text x="68" y="220.0" text-anchor="end" class="small">0.4</text>
<line x1="80" y1="164.0" x2="840" y2="164.0" stroke="#ddd" stroke-width="1"/>
<text x="68" y="168.0" text-anchor="end" class="small">0.6</text>
<line x1="80" y1="112.0" x2="840" y2="112.0" stroke="#ddd" stroke-width="1"/>
<text x="68" y="116.0" text-anchor="end" class="small">0.8</text>
<line x1="80" y1="60.0" x2="840" y2="60.0" stroke="#ddd" stroke-width="1"/>
<text x="68" y="64.0" text-anchor="end" class="small">1.0</text>
<text x="80.0" y="348" text-anchor="middle" class="label">MAE</text>
<text x="232.0" y="348" text-anchor="middle" class="label">Exact</text>
<text x="384.0" y="348" text-anchor="middle" class="label">Within1</text>
<text x="536.0" y="348" text-anchor="middle" class="label">Pearson</text>
<text x="688.0" y="348" text-anchor="middle" class="label">Spearman</text>
<rect x="26.0" y="259.3" width="24" height="60.7" fill="#D95F02"/>
<rect x="178.0" y="268.0" width="24" height="52.0" fill="#D95F02"/>
<rect x="330.0" y="151.0" width="24" height="169.0" fill="#D95F02"/>
<rect x="482.0" y="150.4" width="24" height="169.6" fill="#D95F02"/>
<rect x="634.0" y="146.4" width="24" height="173.6" fill="#D95F02"/>
<rect x="54.0" y="233.3" width="24" height="86.7" fill="#7570B3"/>
<rect x="206.0" y="242.0" width="24" height="78.0" fill="#7570B3"/>
<rect x="358.0" y="138.0" width="24" height="182.0" fill="#7570B3"/>
<rect x="510.0" y="133.2" width="24" height="186.8" fill="#7570B3"/>
<rect x="662.0" y="131.6" width="24" height="188.4" fill="#7570B3"/>
<rect x="82.0" y="146.7" width="24" height="173.3" fill="#1B9E77"/>
<rect x="234.0" y="151.0" width="24" height="169.0" fill="#1B9E77"/>
<rect x="386.0" y="99.0" width="24" height="221.0" fill="#1B9E77"/>
<rect x="538.0" y="79.5" width="24" height="240.5" fill="#1B9E77"/>
<rect x="690.0" y="70.7" width="24" height="249.3" fill="#1B9E77"/>
<rect x="110.0" y="138.0" width="24" height="182.0" fill="#E7298A"/>
<rect x="262.0" y="177.0" width="24" height="143.0" fill="#E7298A"/>
<rect x="414.0" y="60.0" width="24" height="260.0" fill="#E7298A"/>
<rect x="566.0" y="76.2" width="24" height="243.8" fill="#E7298A"/>
<rect x="718.0" y="89.3" width="24" height="230.7" fill="#E7298A"/>
<rect x="620" y="60" width="14" height="14" fill="#D95F02"/>
<text x="644" y="72" class="label">v3</text>
<rect x="620" y="84" width="14" height="14" fill="#7570B3"/>
<text x="644" y="96" class="label">v4</text>
<rect x="620" y="108" width="14" height="14" fill="#1B9E77"/>
<text x="644" y="120" class="label">v5</text>
<rect x="620" y="132" width="14" height="14" fill="#E7298A"/>
<text x="644" y="144" class="label">v6</text>
<text x="80" y="380" class="small">MAE is inverted in this chart so taller bars indicate better performance, consistent with the other metrics.</text>
</svg>